<svg id="Layer_1" data-name="Layer 1" xmlns="http://www.w3.org/2000/svg" viewBox="0 0 676.37 198.22"><defs><style>.cls-1{fill:#fff;}</style></defs><title>New_erodr_logo</title><path class="cls-1" d="M156.36,862.76l15.23,8q-7.49,14.71-17.31,23.75a68.82,68.82,0,0,1-22.09,13.74A77.2,77.2,0,0,1,104.42,913q-34.36,0-53.74-22.52T31.31,839.53a75.08,75.08,0,0,1,16.4-47.62q20.8-26.59,55.68-26.58,35.91,0,57.35,27.23,15.25,19.23,15.51,48H49.9q.5,24.47,15.62,40.1t37.35,15.65a59.91,59.91,0,0,0,20.87-3.73A54.74,54.74,0,0,0,141,882.69Q148.09,876.52,156.36,862.76Zm0-37.82q-3.61-14.45-10.53-23.1a50,50,0,0,0-18.28-13.94,56.12,56.12,0,0,0-23.91-5.29q-20.68,0-35.53,13.29-10.86,9.69-16.42,29Z" transform="translate(-31.31 -714.74)"/><path class="cls-1" d="M203.08,768.95h18.46v20.51q8.25-12.12,17.42-18.13a34.34,34.34,0,0,1,19.1-6q7.48,0,16,4.78l-9.42,15.23a25.16,25.16,0,0,0-9.55-2.45q-9,0-17.42,7.42t-12.77,23q-3.36,12-3.36,48.52v47.5H203.08Z" transform="translate(-31.31 -714.74)"/><path class="cls-1" d="M355.87,765.32q32.45,0,53.78,23.49,19.4,21.42,19.4,50.71T408.56,891q-20.49,22-52.68,22t-52.81-22q-20.49-22-20.49-51.43,0-29.16,19.4-50.59Q323.3,765.33,355.87,765.32ZM355.81,783q-22.53,0-38.72,16.65T300.9,839.91a57,57,0,0,0,7.38,28.39,52.29,52.29,0,0,0,19.94,20.33,56.7,56.7,0,0,0,55.17,0,52.34,52.34,0,0,0,19.95-20.33,57.16,57.16,0,0,0,7.38-28.39q0-23.61-16.25-40.26T355.81,783Z" transform="translate(-31.31 -714.74)"/><path class="cls-1" d="M602.62,714.74V909.35H584.81V885.21A77.37,77.37,0,0,1,559.33,906a68.87,68.87,0,0,1-30.91,7q-29.82,0-50.91-21.62t-21.1-52.59q0-30.33,21.29-51.88t51.24-21.55a66.28,66.28,0,0,1,31.29,7.36q14,7.36,24.58,22.07v-80Zm-72.2,68A54.53,54.53,0,0,0,482.27,811a56.85,56.85,0,0,0,.07,56.71,55.31,55.31,0,0,0,20.43,21.08,53.34,53.34,0,0,0,27.53,7.54,56.47,56.47,0,0,0,28.1-7.47,52.3,52.3,0,0,0,20.43-20.25A57.73,57.73,0,0,0,586,839.85q0-24.36-16-40.73T530.42,782.74Z" transform="translate(-31.31 -714.74)"/><path class="cls-1" d="M636.7,768.95h18.45v20.51q8.25-12.12,17.42-18.13a34.38,34.38,0,0,1,19.1-6q7.49,0,16,4.78l-9.42,15.23a25.17,25.17,0,0,0-9.55-2.45q-9,0-17.42,7.42t-12.77,23q-3.36,12-3.36,48.52v47.5H636.7Z" transform="translate(-31.31 -714.74)"/></svg>