<svg id="Tumblr" xmlns="http://www.w3.org/2000/svg" xmlns:xlink="http://www.w3.org/1999/xlink" width="36" height="36" viewBox="0 0 36 36">
  <defs>
    <style>
      .cls-1 {
        fill-rule: evenodd;
        filter: url(#filter);
      }
    </style>
    <filter id="filter" x="200" y="2951" width="36" height="36" filterUnits="userSpaceOnUse">
      <feFlood result="flood" flood-color="#fff"/>
      <feComposite result="composite" operator="in" in2="SourceGraphic"/>
      <feBlend result="blend" in2="SourceGraphic"/>
    </filter>
  </defs>
  <path id="Forma_1" data-name="Forma 1" class="cls-1" d="M218,2951a17.995,17.995,0,1,0,18,18A18.022,18.022,0,0,0,218,2951Zm6.083,26.58a11.2,11.2,0,0,1-2.271.82,9.553,9.553,0,0,1-2.2.24,5.872,5.872,0,0,1-2.109-.34,5.114,5.114,0,0,1-1.759-.96,3.5,3.5,0,0,1-1.01-1.33,5.83,5.83,0,0,1-.282-2.05v-6.87h-2.659v-2.77a6.85,6.85,0,0,0,2.207-1.07,5.419,5.419,0,0,0,1.319-1.68,7.556,7.556,0,0,0,.687-2.49h2.783v4.52h4.524v3.49H218.79v5.02a8.455,8.455,0,0,0,.106,2.11,1.812,1.812,0,0,0,.744.85,2.833,2.833,0,0,0,1.485.39,5.3,5.3,0,0,0,2.956-.97v3.09h0Z" transform="translate(-200 -2951)"/>
</svg>
